# xmcd CD database file
#
# Track frame offsets:
#	150
#	18110
#	36422
#	69835
#	85375
#	103837
#	122847
#	140232
#	158175
#	175875
#	192527
#	208982
#
# Disc length: 3026 seconds
#
# Revision: 0
# Processed by: cddbd v1.5.2PL0 Copyright (c) Steve Scherf et al.
# Submitted via: jetAudio 7
#
DISCID=b20bd00c
DTITLE=สิบล้อ - เสียงเพลงสิบล้อ
DYEAR=1900
DGENRE=Country
TTITLE0=รักต้องพิสูจน์
TTITLE1=รักเป็นเช่นใด
TTITLE2=ชีพจรลงท้อง(ฉบับเต็ม)
TTITLE3=สับราง
TTITLE4=คนไม่จริงใจ
TTITLE5=คิดสั้นทำไม
TTITLE6=หายคิดถึง...ชะที
TTITLE7=นักดาบ
TTITLE8=คนนอก
TTITLE9=หมดใจไม่มีฟอร์ม
TTITLE10=ถึงร้ายก็รัก
TTITLE11=ปีศาจร้าย
EXTD=
EXTT0=
EXTT1=
EXTT2=
EXTT3=
EXTT4=
EXTT5=
EXTT6=
EXTT7=
EXTT8=
EXTT9=
EXTT10=
EXTT11=
PLAYORDER=
